# xmcd
#
# Track frame offsets: 
#        150
#        12440
#        24957
#        37402
#        50100
#        61760
#        73805
#        85847
#        99245
#        111485
#        122212
#        133905
#        144162
#        155845
#        167152
#        178522
#        190912
#        202982
#        213967
#        224940
#        237415
#        248207
#
# Disc length: 3453 seconds
#
# Revision: 0
# Processed by: cddbd v1.5.2PL0 Copyright (c) Steve Scherf et al.
# Submitted via: ExactAudioCopyFreeDBPlugin 1.0
#
DISCID=530d7b16
DTITLE=Brown's Ferry Four - Rockin' On The Waves - Complete King Recor
DTITLE=dings 1946-1952 [CD2]
DYEAR=1997
DGENRE=Gospel
TTITLE0=When We Sing Around The Throne Eternal
TTITLE1=After The Sunrise
TTITLE2=I'll Meet You In The Morning
TTITLE3=Jesus Hold My Hand
TTITLE4=Keep On The Firing Line
TTITLE5=The Judgement Day
TTITLE6=There's A Page In The Bible
TTITLE7=We Should Walk Together
TTITLE8=I Am A Weary Pilgrim
TTITLE9=Heaven Eternal For Me
TTITLE10=The Arm Of God
TTITLE11=Bound For The Shore
TTITLE12=Eternity Without Him
TTITLE13=Can't You Hear Him Calling
TTITLE14=I Feel Like Traveling On
TTITLE15=I Need The Prayers
TTITLE16=The Unclouded Day
TTITLE17=Through The Pearly Gate
TTITLE18=When The Redeemed Are Gathering In
TTITLE19=Praise God! He Loves Everybody
TTITLE20=You Must Be Born Again
TTITLE21=What Shall I Do With Jesus
EXTD=
EXTT0=
EXTT1=
EXTT2=
EXTT3=
EXTT4=
EXTT5=
EXTT6=
EXTT7=
EXTT8=
EXTT9=
EXTT10=
EXTT11=
EXTT12=
EXTT13=
EXTT14=
EXTT15=
EXTT16=
EXTT17=
EXTT18=
EXTT19=
EXTT20=
EXTT21=
PLAYORDER=
